<svg width="251" height="38" viewBox="0 0 251 38" fill="none" xmlns="http://www.w3.org/2000/svg">
<path d="M56.284 5.11108L49.3752 21.1554H46.6345L39.6687 5.11108H42.495L46.5774 14.7605C46.8058 15.3315 47.0628 15.931 47.3483 16.5591C47.6337 17.2157 47.8907 17.8152 48.1476 18.4147C48.3475 17.8152 48.6044 17.2157 48.8613 16.5591C49.1183 15.931 49.3752 15.3315 49.6036 14.7605L53.4006 5.08253H56.284V5.11108Z" fill="#1B3B47"/>
<path d="M59.6527 21.1554V5.11109H71.5575V7.48062H62.1079V11.7344H70.2728V14.1324H62.1079V18.7859H71.5575V21.1554H59.6527Z" fill="#1B3B47"/>
<path d="M89.6002 5.11109H92.0839V21.1554H89.6858L78.4091 8.67967C78.4948 9.65032 78.5804 10.621 78.6946 11.5916C78.7803 12.5623 78.8374 13.5044 78.8374 14.475V21.1554H76.3536V5.11109H78.7232L89.9999 17.8723C89.9142 17.13 89.8286 16.3021 89.7715 15.4457C89.7144 14.5892 89.6858 13.7042 89.6573 12.8478C89.6287 11.9627 89.6287 11.1634 89.6287 10.364V5.11109H89.6002Z" fill="#1B3B47"/>
<path d="M109.698 21.1554L107.985 17.3013H99.7635L98.0506 21.1554H95.4812L102.59 5.11109H105.33L112.411 21.1554H109.698ZM102.618 10.7923L100.82 14.9318H106.958L105.102 10.7066C104.674 9.76451 104.274 8.73676 103.874 7.68047C103.675 8.25144 103.475 8.79386 103.275 9.30773C103.047 9.8216 102.847 10.3355 102.618 10.7923Z" fill="#1B3B47"/>
<path d="M123.116 5.11109C124.487 5.11109 125.714 5.31093 126.742 5.73916C127.77 6.16739 128.655 6.73836 129.368 7.48062C130.082 8.22289 130.596 9.07934 130.939 10.05C131.281 11.0206 131.452 12.0484 131.452 13.1332C131.452 14.5892 131.138 15.931 130.51 17.1586C129.882 18.3862 128.94 19.3568 127.713 20.0706C126.485 20.7843 124.943 21.1554 123.116 21.1554H115.808V5.11109H123.116ZM123.002 18.7859C124.372 18.7859 125.486 18.5289 126.371 18.015C127.227 17.5012 127.855 16.816 128.284 15.9881C128.683 15.1316 128.883 14.1895 128.883 13.1618C128.883 12.1626 128.683 11.2205 128.284 10.364C127.884 9.50757 127.256 8.8224 126.371 8.30853C125.514 7.79465 124.372 7.53772 123.002 7.53772H118.263V18.8144H123.002V18.7859Z" fill="#1B3B47"/>
<path d="M152.122 13.1332C152.122 14.3037 151.893 15.3886 151.465 16.3878C151.037 17.387 150.409 18.272 149.609 19.0143C148.81 19.7565 147.868 20.356 146.783 20.7557C145.698 21.184 144.499 21.3838 143.214 21.3838C141.901 21.3838 140.702 21.184 139.617 20.7557C138.532 20.3275 137.59 19.7565 136.82 19.0143C136.02 18.272 135.421 17.387 134.992 16.3878C134.564 15.3886 134.336 14.3037 134.336 13.1332C134.336 11.9628 134.564 10.8779 134.992 9.87871C135.421 8.87951 136.049 7.99451 136.82 7.25225C137.619 6.50998 138.532 5.91046 139.617 5.51078C140.702 5.08255 141.901 4.88271 143.214 4.88271C144.499 4.88271 145.67 5.08255 146.783 5.51078C147.868 5.93901 148.81 6.50998 149.609 7.25225C150.409 7.99451 151.008 8.87951 151.465 9.87871C151.893 10.9065 152.122 11.9628 152.122 13.1332ZM149.609 13.1332C149.609 12.0199 149.324 11.0207 148.781 10.1356C148.239 9.25064 147.497 8.56548 146.526 8.0516C145.584 7.53773 144.471 7.28079 143.243 7.28079C141.987 7.28079 140.873 7.53773 139.903 8.0516C138.961 8.56548 138.19 9.25064 137.676 10.1356C137.134 11.0207 136.877 12.0199 136.877 13.1332C136.877 14.2466 137.134 15.2458 137.676 16.1308C138.218 17.0159 138.961 17.701 139.903 18.2149C140.845 18.7288 141.958 18.9857 143.243 18.9857C144.471 18.9857 145.584 18.7288 146.526 18.2149C147.468 17.701 148.239 17.0159 148.781 16.1023C149.324 15.2459 149.609 14.2466 149.609 13.1332Z" fill="#1B3B47"/>
<path d="M169.622 10.1356C169.622 11.1919 169.279 12.1626 168.623 13.019C167.966 13.8755 167.138 14.5036 166.11 14.8747L170.393 21.2125L167.338 21.1839L163.37 15.1887H158.688V21.1554H156.204V5.11109H164.455C165.368 5.11109 166.196 5.33948 166.967 5.76771C167.738 6.19594 168.394 6.79546 168.88 7.53772C169.365 8.27999 169.622 9.13644 169.622 10.1356ZM163.884 7.48062H158.688V12.7907H164.198C164.74 12.7907 165.225 12.6765 165.654 12.4195C166.082 12.1626 166.424 11.8486 166.681 11.4203C166.938 11.0206 167.053 10.5639 167.053 10.0785C167.053 9.56467 166.91 9.13644 166.624 8.73676C166.339 8.33708 165.939 8.02305 165.482 7.79466C164.968 7.59482 164.455 7.48062 163.884 7.48062Z" fill="#1B3B47"/>
<path d="M190.634 5.11109C191.547 5.11109 192.375 5.33948 193.146 5.76771C193.917 6.19594 194.516 6.79546 194.944 7.53772C195.401 8.27999 195.63 9.10789 195.63 10.05C195.63 10.9921 195.401 11.8486 194.916 12.6194C194.431 13.3902 193.803 14.0182 193.003 14.475C192.204 14.9318 191.319 15.1602 190.377 15.1602H184.981V21.1554H182.497V5.11109H190.634ZM190.234 12.7621C190.748 12.7621 191.205 12.6479 191.633 12.391C192.061 12.134 192.404 11.82 192.661 11.3918C192.918 10.9921 193.032 10.5353 193.032 10.05C193.032 9.56467 192.918 9.13644 192.661 8.76531C192.404 8.39418 192.061 8.08014 191.633 7.85175C191.205 7.62336 190.748 7.50917 190.234 7.50917H184.981V12.7907H190.234V12.7621Z" fill="#1B3B47"/>
<path d="M213.187 10.1356C213.187 11.1919 212.844 12.1626 212.188 13.019C211.531 13.8755 210.703 14.5036 209.676 14.8747L213.958 21.2125L210.903 21.1839L206.935 15.1887H202.253V21.1554H199.769V5.11109H208.048C208.962 5.11109 209.79 5.33948 210.561 5.76771C211.331 6.19594 211.988 6.79546 212.473 7.53772C212.959 8.27999 213.187 9.13644 213.187 10.1356ZM207.449 7.48062H202.253V12.7907H207.763C208.305 12.7907 208.791 12.6765 209.219 12.4195C209.647 12.1626 209.99 11.8486 210.247 11.4203C210.503 11.0206 210.618 10.5639 210.618 10.0785C210.618 9.56467 210.475 9.13644 210.189 8.73676C209.904 8.33708 209.504 8.02305 209.047 7.79466C208.534 7.59482 208.02 7.48062 207.449 7.48062Z" fill="#1B3B47"/>
<path d="M227.69 21.1554H218.24V18.7859H221.723V7.48062H218.24V5.11109H227.69V7.48062H224.207V18.7859H227.69V21.1554Z" fill="#1B3B47"/>
<path d="M235.255 5.11108L241.422 13.6757L247.617 5.11108H250.015V21.1554H247.531V14.4465C247.531 13.4758 247.56 12.5337 247.588 11.6487C247.617 10.7637 247.674 9.87869 247.788 8.99368L242.135 16.5305H240.622L235.055 8.99368C235.169 9.87869 235.227 10.7352 235.255 11.6202C235.284 12.5052 235.312 13.4187 235.312 14.4179V21.1268H232.828V5.08253H235.255V5.11108Z" fill="#1B3B47"/>
<path d="M51.4307 33.6597C51.2594 33.831 51.0025 34.0023 50.6599 34.2021C50.3459 34.3734 49.9747 34.5447 49.5465 34.6589C49.1468 34.7731 48.6901 34.8302 48.2333 34.8302C47.6623 34.8302 47.1199 34.7445 46.606 34.5447C46.1207 34.3448 45.6639 34.0879 45.2928 33.7453C44.9216 33.4027 44.6362 32.9745 44.4078 32.4892C44.2079 32.0039 44.0937 31.4614 44.0937 30.8334C44.0937 30.2624 44.2079 29.7485 44.4363 29.2632C44.6647 28.7779 44.9502 28.3782 45.3499 28.0071C45.7496 27.6645 46.1778 27.379 46.6917 27.1791C47.2055 26.9793 47.7194 26.8937 48.2904 26.8937C48.7472 26.8937 49.2039 26.9508 49.6036 27.0935C50.0318 27.2362 50.403 27.379 50.717 27.5788C51.031 27.7787 51.3165 27.9785 51.5164 28.2069L50.7741 29.149C50.4315 28.835 50.0318 28.578 49.6322 28.3782C49.2039 28.1784 48.7472 28.0927 48.2333 28.0927C47.8621 28.0927 47.5196 28.1498 47.177 28.2925C46.8344 28.4067 46.5204 28.6066 46.2349 28.835C45.9494 29.0634 45.7496 29.3774 45.5783 29.6914C45.407 30.034 45.3213 30.4051 45.3213 30.8334C45.3213 31.4614 45.4641 31.9753 45.7496 32.375C46.035 32.8032 46.4062 33.1173 46.8629 33.3171C47.3197 33.5169 47.8336 33.6311 48.3475 33.6311C48.7186 33.6311 49.0612 33.574 49.3752 33.4884C49.6893 33.4027 49.9462 33.26 50.2031 33.1173C50.4315 32.9745 50.6599 32.8032 50.8312 32.6605L51.4307 33.6597Z" fill="#1B3B47"/>
<path d="M68.0745 30.8619C68.0745 31.4329 67.9603 31.9468 67.7605 32.4321C67.5607 32.9174 67.2466 33.3456 66.8755 33.6882C66.5044 34.0594 66.0476 34.3449 65.5052 34.5447C64.9913 34.7445 64.4203 34.8587 63.7923 34.8587C63.1642 34.8587 62.5647 34.7445 62.0508 34.5447C61.5369 34.3449 61.0801 34.0594 60.6805 33.6882C60.3093 33.3171 59.9953 32.9174 59.7955 32.4321C59.5956 31.9468 59.4814 31.4329 59.4814 30.8619C59.4814 30.291 59.5956 29.7771 59.7955 29.2918C59.9953 28.8064 60.3093 28.3782 60.6805 28.0356C61.0516 27.6645 61.5084 27.379 62.0508 27.1792C62.5647 26.9793 63.1642 26.8651 63.7923 26.8651C64.4203 26.8651 64.9913 26.9793 65.5052 27.1792C66.019 27.379 66.4758 27.6645 66.8755 28.0356C67.2466 28.4067 67.5607 28.8064 67.7605 29.2918C67.9889 29.7771 68.0745 30.291 68.0745 30.8619ZM66.8755 30.8619C66.8755 30.3195 66.7328 29.8342 66.4758 29.4059C66.2189 28.9777 65.8477 28.6351 65.391 28.4067C64.9342 28.1498 64.3918 28.0356 63.7923 28.0356C63.1927 28.0356 62.6503 28.1498 62.1935 28.4067C61.7368 28.6637 61.3656 28.9777 61.1087 29.4059C60.8517 29.8342 60.709 30.3195 60.709 30.8619C60.709 31.4043 60.8517 31.8897 61.1087 32.3179C61.3656 32.7461 61.7368 33.0887 62.1935 33.3171C62.6503 33.574 63.1927 33.6882 63.7923 33.6882C64.3918 33.6882 64.9056 33.574 65.391 33.3171C65.8477 33.0602 66.2189 32.7461 66.4758 32.3179C66.7328 31.8611 66.8755 31.4043 66.8755 30.8619Z" fill="#1B3B47"/>
<path d="M83.1197 26.9793H84.3187V34.716H83.1482L77.6954 28.6922C77.7525 29.1775 77.7811 29.6343 77.8382 30.0911C77.8953 30.5479 77.8953 31.0332 77.8953 31.49V34.716H76.6962V26.9793H77.8382L83.291 33.1458C83.2339 32.7747 83.2053 32.4035 83.1768 31.9753C83.1482 31.5471 83.1197 31.1474 83.1197 30.7192C83.1197 30.2909 83.1197 29.8913 83.1197 29.5201V26.9793Z" fill="#1B3B47"/>
<path d="M100.22 33.6597C100.049 33.831 99.792 34.0023 99.4494 34.2021C99.1354 34.3734 98.7643 34.5447 98.336 34.6589C97.9364 34.7731 97.4796 34.8302 97.0228 34.8302C96.4518 34.8302 95.9094 34.7445 95.3955 34.5447C94.9102 34.3448 94.4534 34.0879 94.0823 33.7453C93.7112 33.4027 93.4257 32.9745 93.1973 32.4892C92.9975 32.0039 92.8833 31.4614 92.8833 30.8334C92.8833 30.2624 92.9974 29.7485 93.2258 29.2632C93.4542 28.7779 93.7397 28.3782 94.1394 28.0071C94.5391 27.6645 94.9673 27.379 95.4812 27.1791C95.9951 26.9793 96.5089 26.8937 97.0799 26.8937C97.5367 26.8937 97.9934 26.9508 98.3931 27.0935C98.8214 27.2362 99.1925 27.379 99.5065 27.5788C99.8206 27.7787 100.106 27.9785 100.306 28.2069L99.5636 29.1776C99.221 28.8635 98.8214 28.6066 98.4217 28.4067C97.9935 28.2069 97.5367 28.1212 97.0228 28.1212C96.6517 28.1212 96.3091 28.1783 95.9665 28.3211C95.6239 28.4353 95.3099 28.6351 95.0244 28.8635C94.7389 29.0919 94.5391 29.4059 94.3678 29.72C94.1965 30.0626 94.1108 30.4337 94.1108 30.8619C94.1108 31.49 94.2536 32.0039 94.5391 32.4035C94.8246 32.8318 95.1957 33.1458 95.6525 33.3456C96.1092 33.5455 96.6231 33.6597 97.137 33.6597C97.5081 33.6597 97.8507 33.6026 98.1647 33.5169C98.4788 33.4313 98.7357 33.2885 98.9927 33.1458C99.221 33.0031 99.4494 32.8318 99.6207 32.689L100.22 33.6597Z" fill="#1B3B47"/>
<path d="M115.322 29.4059C115.322 29.9198 115.151 30.3766 114.837 30.8048C114.523 31.2331 114.123 31.5185 113.638 31.6898L115.722 34.7445H114.238L112.296 31.8611H110.041V34.7445H108.842V27.0079H112.839C113.267 27.0079 113.667 27.1221 114.066 27.3219C114.437 27.5217 114.751 27.8072 114.98 28.1784C115.208 28.5209 115.322 28.9206 115.322 29.4059ZM112.553 28.1498H110.041V30.7192H112.696C112.953 30.7192 113.181 30.6621 113.381 30.5479C113.581 30.4337 113.752 30.2624 113.866 30.0626C113.981 29.8627 114.038 29.6629 114.038 29.4345C114.038 29.1776 113.981 28.9777 113.838 28.7779C113.695 28.578 113.524 28.4353 113.296 28.3211C113.067 28.2069 112.839 28.1498 112.553 28.1498Z" fill="#1B3B47"/>
<path d="M124.487 34.7445V26.9793H130.225V28.1498H125.686V30.1768H129.625V31.3472H125.686V33.574H130.225V34.7445H124.487Z" fill="#1B3B47"/>
<path d="M140.959 34.7445V28.1498H138.361V26.9793H144.842V28.1498H142.158V34.7445H140.959Z" fill="#1B3B47"/>
<path d="M153.206 34.7445V26.9793H158.945V28.1498H154.405V30.1768H158.345V31.3472H154.405V33.574H158.945V34.7445H153.206Z" fill="#1B3B47"/>
<path d="M187.636 26.9793C188.093 26.9793 188.492 27.0935 188.835 27.2933C189.206 27.4932 189.492 27.7787 189.72 28.1498C189.948 28.5209 190.034 28.9206 190.034 29.3488C190.034 29.8056 189.92 30.2338 189.692 30.605C189.463 30.9761 189.149 31.2616 188.778 31.49C188.378 31.7184 187.979 31.8326 187.522 31.8326H184.924V34.7445H183.725V27.0079H187.636V26.9793ZM187.465 30.6906C187.722 30.6906 187.921 30.6335 188.15 30.5193C188.35 30.4051 188.521 30.2338 188.635 30.034C188.749 29.8342 188.806 29.6058 188.806 29.3774C188.806 29.149 188.749 28.9492 188.635 28.7493C188.521 28.578 188.35 28.4067 188.15 28.2925C187.95 28.1783 187.722 28.1212 187.465 28.1212H184.924V30.6621H187.465V30.6906Z" fill="#1B3B47"/>
<path d="M206.706 30.8619C206.706 31.4329 206.592 31.9468 206.392 32.4321C206.193 32.9174 205.879 33.3456 205.507 33.6882C205.136 34.0594 204.68 34.3449 204.137 34.5447C203.623 34.7445 203.052 34.8587 202.424 34.8587C201.796 34.8587 201.197 34.7445 200.683 34.5447C200.169 34.3449 199.712 34.0594 199.312 33.6882C198.941 33.3171 198.627 32.9174 198.427 32.4321C198.228 31.9468 198.113 31.4329 198.113 30.8619C198.113 30.291 198.228 29.7771 198.427 29.2918C198.627 28.8064 198.941 28.3782 199.312 28.0356C199.684 27.6645 200.14 27.379 200.683 27.1792C201.197 26.9793 201.796 26.8651 202.424 26.8651C203.052 26.8651 203.623 26.9793 204.137 27.1792C204.651 27.379 205.108 27.6645 205.507 28.0356C205.879 28.4067 206.193 28.8064 206.392 29.2918C206.592 29.7771 206.706 30.291 206.706 30.8619ZM205.479 30.8619C205.479 30.3195 205.336 29.8342 205.079 29.4059C204.822 28.9777 204.451 28.6351 203.994 28.4067C203.538 28.1498 202.995 28.0356 202.396 28.0356C201.796 28.0356 201.254 28.1498 200.797 28.4067C200.34 28.6637 199.969 28.9777 199.712 29.4059C199.455 29.8342 199.312 30.3195 199.312 30.8619C199.312 31.4043 199.455 31.8897 199.712 32.3179C199.969 32.7461 200.34 33.0887 200.797 33.3171C201.254 33.574 201.796 33.6882 202.396 33.6882C202.995 33.6882 203.509 33.574 203.994 33.3171C204.451 33.0602 204.822 32.7461 205.079 32.3179C205.365 31.8611 205.479 31.4043 205.479 30.8619Z" fill="#1B3B47"/>
<path d="M221.009 33.574V34.7445H215.328V26.9793H216.527V33.574H221.009Z" fill="#1B3B47"/>
<path d="M229.66 34.7445V26.9793H235.398V28.1498H230.859V30.1768H234.798V31.3472H230.859V33.574H235.398V34.7445H229.66Z" fill="#1B3B47"/>
<path d="M244.562 32.375C244.933 32.8318 245.333 33.1744 245.761 33.4027C246.189 33.6597 246.703 33.7739 247.303 33.7739C247.617 33.7739 247.931 33.7453 248.245 33.6597C248.53 33.574 248.787 33.4313 248.987 33.26C249.187 33.0887 249.272 32.8603 249.272 32.6034C249.272 32.2323 249.073 31.9753 248.673 31.804C248.273 31.6327 247.731 31.5185 247.017 31.4043C246.161 31.2616 245.447 31.0332 244.933 30.6621C244.419 30.291 244.162 29.7771 244.162 29.0919C244.162 28.6351 244.305 28.2355 244.59 27.8929C244.876 27.5503 245.247 27.2933 245.704 27.1221C246.189 26.9508 246.703 26.8651 247.274 26.8651C247.988 26.8651 248.587 26.9793 249.101 27.2077C249.615 27.4361 250.015 27.7787 250.329 28.2069L249.501 29.0634C249.244 28.7208 248.93 28.4353 248.559 28.2355C248.188 28.0356 247.731 27.9214 247.217 27.9214C246.703 27.9214 246.275 28.0071 245.932 28.2069C245.59 28.4067 245.418 28.6637 245.418 29.0063C245.418 29.4059 245.618 29.6914 245.989 29.8627C246.361 30.034 246.846 30.1482 247.445 30.2624C247.845 30.3195 248.216 30.4052 248.587 30.4908C248.958 30.5764 249.272 30.7192 249.558 30.8619C249.843 31.0332 250.072 31.2331 250.243 31.4614C250.414 31.7184 250.5 32.0039 250.5 32.375C250.5 32.8603 250.357 33.2886 250.1 33.6597C249.843 34.0308 249.444 34.3163 248.958 34.5161C248.473 34.716 247.874 34.8302 247.217 34.8302C246.503 34.8302 245.847 34.716 245.276 34.4876C244.705 34.2592 244.191 33.8595 243.763 33.3457L244.562 32.375Z" fill="#1B3B47"/>
<path d="M9.83539 0.286398H0.5V37.7136H9.83539V0.286398Z" fill="#7F9EAC"/>
<path d="M22.3968 0.286374H13.0614V37.7136H22.3968V0.286374Z" fill="#658390"/>
<path d="M34.9296 0.286374H25.5943V37.7136H34.9296V0.286374Z" fill="#4D6B77"/>
</svg>
