<svg width="276" height="42" viewBox="0 0 276 42" fill="none" xmlns="http://www.w3.org/2000/svg">
<path d="M61.4133 6.09049L53.8137 23.7392H50.799L43.1365 6.09049H46.2455L50.7362 16.7049C50.9874 17.3329 51.27 17.9924 51.5841 18.6833C51.8981 19.4055 52.1807 20.065 52.4634 20.7245C52.6832 20.065 52.9658 19.4055 53.2484 18.6833C53.5311 17.9924 53.8137 17.3329 54.0649 16.7049L58.2416 6.05908H61.4133V6.09049Z" fill="white"/>
<path d="M65.119 23.74V6.09131H78.2142V8.69779H67.8196V13.3769H76.801V16.0148H67.8196V21.1336H78.2142V23.74H65.119Z" fill="white"/>
<path d="M98.0612 6.09131H100.793V23.74H98.1554L85.751 10.0167C85.8452 11.0845 85.9395 12.1522 86.0651 13.2199C86.1593 14.2876 86.2221 15.3239 86.2221 16.3916V23.74H83.49V6.09131H86.0965L98.5008 20.1286C98.4066 19.3122 98.3124 18.4015 98.2496 17.4594C98.1868 16.5172 98.1554 15.5437 98.124 14.6016C98.0926 13.6281 98.0926 12.7488 98.0926 11.8695V6.09131H98.0612Z" fill="white"/>
<path d="M120.169 23.74L118.285 19.5006H109.241L107.357 23.74H104.53L112.35 6.09131H115.364L123.153 23.74H120.169ZM112.381 12.3406L110.403 16.8941H117.154L115.113 12.2464C114.642 11.2101 114.203 10.0795 113.763 8.91762C113.543 9.54569 113.323 10.1423 113.103 10.7076C112.852 11.2729 112.632 11.8381 112.381 12.3406Z" fill="white"/>
<path d="M134.929 6.09131C136.436 6.09131 137.787 6.31113 138.917 6.78218C140.048 7.25323 141.021 7.8813 141.806 8.69779C142.591 9.51428 143.157 10.4564 143.533 11.5241C143.91 12.5918 144.099 13.7223 144.099 14.9157C144.099 16.5172 143.753 17.9932 143.062 19.3436C142.371 20.6939 141.335 21.7616 139.985 22.5467C138.634 23.3318 136.939 23.74 134.929 23.74H126.89V6.09131H134.929ZM134.803 21.1336C136.311 21.1336 137.535 20.8509 138.509 20.2857C139.451 19.7204 140.142 18.9667 140.613 18.056C141.052 17.1139 141.272 16.0776 141.272 14.9471C141.272 13.848 141.052 12.8116 140.613 11.8695C140.173 10.9274 139.482 10.1738 138.509 9.60849C137.567 9.04323 136.311 8.7606 134.803 8.7606H129.59V21.165H134.803V21.1336Z" fill="white"/>
<path d="M166.835 14.9154C166.835 16.203 166.584 17.3963 166.112 18.4954C165.641 19.5946 164.951 20.5681 164.071 21.3846C163.192 22.201 162.156 22.8605 160.962 23.3002C159.769 23.7712 158.45 23.991 157.037 23.991C155.592 23.991 154.273 23.7712 153.08 23.3002C151.887 22.8291 150.85 22.201 150.002 21.3846C149.123 20.5681 148.464 19.5946 147.993 18.4954C147.522 17.3963 147.27 16.203 147.27 14.9154C147.27 13.6279 147.522 12.4346 147.993 11.3354C148.464 10.2363 149.155 9.26283 150.002 8.44634C150.882 7.62985 151.887 6.97037 153.08 6.53072C154.273 6.05967 155.592 5.83984 157.037 5.83984C158.45 5.83984 159.738 6.05967 160.962 6.53072C162.156 7.00178 163.192 7.62985 164.071 8.44634C164.951 9.26283 165.61 10.2363 166.112 11.3354C166.584 12.466 166.835 13.6279 166.835 14.9154ZM164.071 14.9154C164.071 13.6907 163.757 12.5916 163.161 11.6181C162.564 10.6446 161.747 9.89089 160.68 9.32563C159.643 8.76037 158.419 8.47773 157.068 8.47773C155.687 8.47773 154.462 8.76037 153.394 9.32563C152.358 9.89089 151.51 10.6446 150.945 11.6181C150.348 12.5916 150.065 13.6907 150.065 14.9154C150.065 16.1402 150.348 17.2393 150.945 18.2128C151.541 19.1863 152.358 19.94 153.394 20.5053C154.43 21.0705 155.655 21.3531 157.068 21.3531C158.419 21.3531 159.643 21.0705 160.68 20.5053C161.716 19.94 162.564 19.1863 163.161 18.1814C163.757 17.2393 164.071 16.1402 164.071 14.9154Z" fill="white"/>
<path d="M186.085 11.6183C186.085 12.7802 185.708 13.848 184.986 14.7901C184.264 15.7322 183.353 16.423 182.222 16.8313L186.933 23.8029L183.573 23.7714L179.208 17.1767H174.057V23.74H171.325V6.09131H180.401C181.406 6.09131 182.317 6.34253 183.164 6.81358C184.012 7.28464 184.735 7.94411 185.268 8.7606C185.802 9.57709 186.085 10.5192 186.085 11.6183ZM179.773 8.69779H174.057V14.5388H180.118C180.715 14.5388 181.249 14.4132 181.72 14.1306C182.191 13.848 182.568 13.5025 182.85 13.0315C183.133 12.5918 183.259 12.0894 183.259 11.5555C183.259 10.9902 183.102 10.5192 182.788 10.0795C182.474 9.63989 182.034 9.29446 181.531 9.04323C180.966 8.82341 180.401 8.69779 179.773 8.69779Z" fill="white"/>
<path d="M209.198 6.09131C210.203 6.09131 211.114 6.34253 211.961 6.81358C212.809 7.28464 213.469 7.94411 213.94 8.7606C214.442 9.57709 214.694 10.4878 214.694 11.5241C214.694 12.5604 214.442 13.5025 213.908 14.3504C213.375 15.1983 212.684 15.8892 211.804 16.3916C210.925 16.8941 209.952 17.1453 208.915 17.1453H202.98V23.74H200.248V6.09131H209.198ZM208.758 14.5074C209.324 14.5074 209.826 14.3818 210.297 14.0992C210.768 13.8166 211.145 13.4711 211.428 13.0001C211.71 12.5604 211.836 12.058 211.836 11.5241C211.836 10.9902 211.71 10.5192 211.428 10.1109C211.145 9.7027 210.768 9.35726 210.297 9.10603C209.826 8.8548 209.324 8.7292 208.758 8.7292H202.98V14.5388H208.758V14.5074Z" fill="white"/>
<path d="M234.007 11.6183C234.007 12.7802 233.63 13.848 232.908 14.7901C232.185 15.7322 231.275 16.423 230.144 16.8313L234.855 23.8029L231.494 23.7714L227.129 17.1767H221.979V23.74H219.247V6.09131H228.354C229.359 6.09131 230.27 6.34253 231.118 6.81358C231.965 7.28464 232.688 7.94411 233.222 8.7606C233.755 9.57709 234.007 10.5192 234.007 11.6183ZM227.695 8.69779H221.979V14.5388H228.04C228.637 14.5388 229.171 14.4132 229.642 14.1306C230.113 13.848 230.49 13.5025 230.772 13.0315C231.055 12.5918 231.18 12.0894 231.18 11.5555C231.18 10.9902 231.023 10.5192 230.709 10.0795C230.395 9.63989 229.956 9.29446 229.453 9.04323C228.888 8.82341 228.323 8.69779 227.695 8.69779Z" fill="white"/>
<path d="M249.96 23.74H239.565V21.1336H243.396V8.69779H239.565V6.09131H249.96V8.69779H246.128V21.1336H249.96V23.74Z" fill="white"/>
<path d="M258.282 6.09049L265.065 15.5115L271.879 6.09049H274.517V23.7392H271.785V16.3594C271.785 15.2917 271.816 14.2554 271.848 13.2819C271.879 12.3084 271.942 11.3349 272.068 10.3613L265.85 18.6519H264.185L258.062 10.3613C258.187 11.3349 258.25 12.277 258.282 13.2505C258.313 14.224 258.344 15.2289 258.344 16.328V23.7078H255.612V6.05908H258.282V6.09049Z" fill="white"/>
<path d="M56.0748 37.4949C55.8864 37.6833 55.6037 37.8717 55.2269 38.0915C54.8814 38.28 54.4732 38.4684 54.0021 38.594C53.5625 38.7196 53.06 38.7824 52.5576 38.7824C51.9295 38.7824 51.3329 38.6882 50.7676 38.4684C50.2337 38.2485 49.7313 37.9659 49.323 37.5891C48.9148 37.2122 48.6008 36.7412 48.3495 36.2073C48.1297 35.6735 48.0041 35.0768 48.0041 34.3859C48.0041 33.7578 48.1297 33.1926 48.3809 32.6587C48.6322 32.1249 48.9462 31.6852 49.3858 31.277C49.8255 30.9001 50.2965 30.5861 50.8618 30.3663C51.4271 30.1465 51.9923 30.0522 52.6204 30.0522C53.1228 30.0522 53.6253 30.1151 54.065 30.2721C54.536 30.4291 54.9443 30.5861 55.2897 30.8059C55.6351 31.0258 55.9492 31.2456 56.169 31.4968L55.3525 32.5331C54.9757 32.1877 54.536 31.9051 54.0964 31.6852C53.6253 31.4654 53.1229 31.3712 52.5576 31.3712C52.1493 31.3712 51.7725 31.434 51.3957 31.591C51.0188 31.7166 50.6734 31.9364 50.3593 32.1877C50.0453 32.4389 49.8255 32.7843 49.6371 33.1298C49.4486 33.5066 49.3544 33.9149 49.3544 34.3859C49.3544 35.0768 49.5115 35.6421 49.8255 36.0817C50.1395 36.5528 50.5478 36.8982 51.0502 37.118C51.5527 37.3378 52.1179 37.4635 52.6832 37.4635C53.0915 37.4635 53.4683 37.4007 53.8137 37.3064C54.1592 37.2122 54.4418 37.0552 54.7244 36.8982C54.9757 36.7412 55.2269 36.5528 55.4153 36.3957L56.0748 37.4949Z" fill="white"/>
<path d="M74.3829 34.4165C74.3829 35.0446 74.2573 35.6098 74.0375 36.1437C73.8177 36.6776 73.4722 37.1486 73.064 37.5254C72.6557 37.9337 72.1533 38.2477 71.5566 38.4675C70.9913 38.6874 70.3633 38.813 69.6724 38.813C68.9815 38.813 68.3221 38.6874 67.7568 38.4675C67.1915 38.2477 66.6891 37.9337 66.2494 37.5254C65.8412 37.1172 65.4957 36.6776 65.2759 36.1437C65.0561 35.6098 64.9305 35.0446 64.9305 34.4165C64.9305 33.7884 65.0561 33.2232 65.2759 32.6893C65.4957 32.1555 65.8412 31.6844 66.2494 31.3076C66.6577 30.8993 67.1601 30.5853 67.7568 30.3655C68.3221 30.1456 68.9815 30.02 69.6724 30.02C70.3633 30.02 70.9913 30.1456 71.5566 30.3655C72.1219 30.5853 72.6243 30.8993 73.064 31.3076C73.4722 31.7158 73.8177 32.1555 74.0375 32.6893C74.2887 33.2232 74.3829 33.7884 74.3829 34.4165ZM73.064 34.4165C73.064 33.8198 72.907 33.286 72.6243 32.8149C72.3417 32.3439 71.9334 31.967 71.431 31.7158C70.9285 31.4332 70.3319 31.3076 69.6724 31.3076C69.0129 31.3076 68.4163 31.4332 67.9138 31.7158C67.4114 31.9984 67.0031 32.3439 66.7205 32.8149C66.4378 33.286 66.2808 33.8198 66.2808 34.4165C66.2808 35.0132 66.4378 35.547 66.7205 36.0181C67.0031 36.4891 67.4114 36.866 67.9138 37.1172C68.4163 37.3998 69.0129 37.5254 69.6724 37.5254C70.3319 37.5254 70.8971 37.3998 71.431 37.1172C71.9334 36.8346 72.3417 36.4891 72.6243 36.0181C72.907 35.5156 73.064 35.0132 73.064 34.4165Z" fill="white"/>
<path d="M90.9326 30.146H92.2515V38.6563H90.964L84.9659 32.0302C85.0287 32.5641 85.0602 33.0665 85.123 33.569C85.1858 34.0714 85.1858 34.6053 85.1858 35.1077V38.6563H83.8668V30.146H85.123L91.121 36.9291C91.0582 36.5209 91.0268 36.1127 90.9954 35.6416C90.964 35.1705 90.9326 34.7309 90.9326 34.2598C90.9326 33.7888 90.9326 33.3492 90.9326 32.9409V30.146Z" fill="white"/>
<path d="M109.743 37.4949C109.555 37.6833 109.272 37.8717 108.895 38.0915C108.55 38.28 108.142 38.4684 107.671 38.594C107.231 38.7196 106.729 38.7824 106.226 38.7824C105.598 38.7824 105.001 38.6882 104.436 38.4684C103.902 38.2485 103.4 37.9659 102.991 37.5891C102.583 37.2122 102.269 36.7412 102.018 36.2073C101.798 35.6735 101.673 35.0768 101.673 34.3859C101.673 33.7578 101.798 33.1926 102.049 32.6587C102.301 32.1249 102.615 31.6852 103.054 31.277C103.494 30.9001 103.965 30.5861 104.53 30.3663C105.096 30.1465 105.661 30.0522 106.289 30.0522C106.791 30.0522 107.294 30.1151 107.733 30.2721C108.204 30.4291 108.613 30.5861 108.958 30.8059C109.304 31.0258 109.618 31.2456 109.837 31.4968L109.021 32.5645C108.644 32.2191 108.204 31.9364 107.765 31.7166C107.294 31.4968 106.791 31.4026 106.226 31.4026C105.818 31.4026 105.441 31.4654 105.064 31.6224C104.687 31.748 104.342 31.9679 104.028 32.2191C103.714 32.4703 103.494 32.8157 103.306 33.1612C103.117 33.538 103.023 33.9463 103.023 34.4173C103.023 35.1082 103.18 35.6735 103.494 36.1131C103.808 36.5842 104.216 36.9296 104.719 37.1494C105.221 37.3693 105.786 37.4949 106.352 37.4949C106.76 37.4949 107.137 37.4321 107.482 37.3379C107.828 37.2436 108.11 37.0866 108.393 36.9296C108.644 36.7726 108.895 36.5842 109.084 36.4271L109.743 37.4949Z" fill="white"/>
<path d="M126.356 32.8156C126.356 33.3809 126.167 33.8833 125.822 34.3544C125.476 34.8254 125.037 35.1395 124.503 35.3279L126.795 38.6881H125.162L123.027 35.5163H120.546V38.6881H119.227V30.1777H123.624C124.095 30.1777 124.534 30.3034 124.974 30.5232C125.382 30.743 125.728 31.057 125.979 31.4653C126.23 31.8421 126.356 32.2818 126.356 32.8156ZM123.31 31.4339H120.546V34.2602H123.467C123.749 34.2602 124 34.1974 124.22 34.0718C124.44 33.9461 124.629 33.7577 124.754 33.5379C124.88 33.3181 124.943 33.0983 124.943 32.847C124.943 32.5644 124.88 32.3446 124.723 32.1248C124.566 31.9049 124.377 31.7479 124.126 31.6223C123.875 31.4967 123.624 31.4339 123.31 31.4339Z" fill="white"/>
<path d="M136.436 38.6877V30.146H142.748V31.4335H137.755V33.6632H142.089V34.9507H137.755V37.4002H142.748V38.6877H136.436Z" fill="white"/>
<path d="M154.556 38.6877V31.4335H151.698V30.146H158.827V31.4335H155.875V38.6877H154.556Z" fill="white"/>
<path d="M168.028 38.6877V30.146H174.34V31.4335H169.347V33.6632H173.681V34.9507H169.347V37.4002H174.34V38.6877H168.028Z" fill="white"/>
<path d="M205.901 30.146C206.403 30.146 206.843 30.2716 207.22 30.4914C207.628 30.7113 207.942 31.0253 208.193 31.4335C208.444 31.8418 208.539 32.2814 208.539 32.7525C208.539 33.2549 208.413 33.726 208.162 34.1342C207.91 34.5425 207.565 34.8565 207.157 35.1077C206.717 35.359 206.277 35.4846 205.775 35.4846H202.917V38.6877H201.598V30.1774H205.901V30.146ZM205.712 34.2284C205.995 34.2284 206.215 34.1656 206.466 34.04C206.686 33.9144 206.874 33.726 207 33.5062C207.125 33.2863 207.188 33.0351 207.188 32.7839C207.188 32.5327 207.125 32.3128 207 32.093C206.874 31.9046 206.686 31.7162 206.466 31.5906C206.246 31.4649 205.995 31.4021 205.712 31.4021H202.917V34.197H205.712V34.2284Z" fill="white"/>
<path d="M226.878 34.4165C226.878 35.0446 226.752 35.6098 226.533 36.1437C226.313 36.6776 225.967 37.1486 225.559 37.5254C225.151 37.9337 224.648 38.2477 224.052 38.4675C223.487 38.6874 222.858 38.813 222.168 38.813C221.477 38.813 220.817 38.6874 220.252 38.4675C219.687 38.2477 219.184 37.9337 218.745 37.5254C218.336 37.1172 217.991 36.6776 217.771 36.1437C217.551 35.6098 217.426 35.0446 217.426 34.4165C217.426 33.7884 217.551 33.2232 217.771 32.6893C217.991 32.1555 218.336 31.6844 218.745 31.3076C219.153 30.8993 219.655 30.5853 220.252 30.3655C220.817 30.1456 221.477 30.02 222.168 30.02C222.858 30.02 223.487 30.1456 224.052 30.3655C224.617 30.5853 225.119 30.8993 225.559 31.3076C225.967 31.7158 226.313 32.1555 226.533 32.6893C226.752 33.2232 226.878 33.7884 226.878 34.4165ZM225.528 34.4165C225.528 33.8198 225.371 33.286 225.088 32.8149C224.805 32.3439 224.397 31.967 223.895 31.7158C223.392 31.4332 222.796 31.3076 222.136 31.3076C221.477 31.3076 220.88 31.4332 220.378 31.7158C219.875 31.9984 219.467 32.3439 219.184 32.8149C218.902 33.286 218.745 33.8198 218.745 34.4165C218.745 35.0132 218.902 35.547 219.184 36.0181C219.467 36.4891 219.875 36.866 220.378 37.1172C220.88 37.3998 221.477 37.5254 222.136 37.5254C222.796 37.5254 223.361 37.3998 223.895 37.1172C224.397 36.8346 224.805 36.4891 225.088 36.0181C225.402 35.5156 225.528 35.0132 225.528 34.4165Z" fill="white"/>
<path d="M242.611 37.4002V38.6877H236.362V30.146H237.681V37.4002H242.611Z" fill="white"/>
<path d="M252.127 38.6877V30.146H258.439V31.4335H253.445V33.6632H257.779V34.9507H253.445V37.4002H258.439V38.6877H252.127Z" fill="white"/>
<path d="M268.519 36.0809C268.927 36.5833 269.367 36.9602 269.838 37.2114C270.309 37.494 270.874 37.6197 271.534 37.6197C271.879 37.6197 272.225 37.5883 272.57 37.494C272.884 37.3998 273.167 37.2428 273.387 37.0544C273.606 36.866 273.701 36.6147 273.701 36.3321C273.701 35.9239 273.481 35.6412 273.041 35.4528C272.602 35.2644 272.005 35.1388 271.22 35.0132C270.278 34.8561 269.493 34.6049 268.927 34.1967C268.362 33.7884 268.079 33.2232 268.079 32.4695C268.079 31.967 268.236 31.5274 268.55 31.1505C268.865 30.7737 269.273 30.4911 269.775 30.3026C270.309 30.1142 270.874 30.02 271.502 30.02C272.287 30.02 272.947 30.1456 273.512 30.3969C274.077 30.6481 274.517 31.0249 274.863 31.496L273.952 32.4381C273.669 32.0612 273.324 31.7472 272.916 31.5274C272.507 31.3076 272.005 31.182 271.44 31.182C270.874 31.182 270.403 31.2762 270.026 31.496C269.65 31.7158 269.461 31.9984 269.461 32.3753C269.461 32.8149 269.681 33.129 270.089 33.3174C270.497 33.5058 271.031 33.6314 271.691 33.757C272.13 33.8198 272.539 33.9141 272.947 34.0083C273.355 34.1025 273.701 34.2595 274.015 34.4165C274.329 34.6049 274.58 34.8247 274.768 35.076C274.957 35.3586 275.051 35.6726 275.051 36.0809C275.051 36.6147 274.894 37.0858 274.611 37.494C274.329 37.9023 273.889 38.2163 273.355 38.4361C272.821 38.656 272.162 38.7816 271.44 38.7816C270.655 38.7816 269.932 38.656 269.304 38.4047C268.676 38.1535 268.111 37.7139 267.64 37.1486L268.519 36.0809Z" fill="white"/>
<path d="M10.3199 0.783691H0.0509644V41.9536H10.3199V0.783691Z" fill="white"/>
<path d="M24.1375 0.783691H13.8685V41.9536H24.1375V0.783691Z" fill="white"/>
<path d="M37.9236 0.783691H27.6547V41.9536H37.9236V0.783691Z" fill="white"/>
</svg>
